<svg version="1.1" xmlns="http://www.w3.org/2000/svg" viewBox="0 0 918.666748046875 666.6666564941406" width="1837.33349609375" height="1333.3333129882812">
  <!-- svg-source:excalidraw -->
  
  <defs>
    <style>
      @font-face {
        font-family: "Virgil";
        src: url("https://excalidraw.com/Virgil.woff2");
      }
      @font-face {
        font-family: "Cascadia";
        src: url("https://excalidraw.com/Cascadia.woff2");
      }
    </style>
  </defs>
  <rect x="0" y="0" width="918.666748046875" height="666.6666564941406" fill="#ffffff"></rect><g transform="translate(354.0000305175781 18.333328247070312) rotate(0 67.5 12.5)"><text x="0" y="18" font-family="Virgil, Segoe UI Emoji" font-size="20px" fill="#000000" text-anchor="start" style="white-space: pre;" direction="ltr">sketch layout</text></g><g stroke-linecap="round" transform="translate(10 99.33334350585938) rotate(0 449.3333740234375 278.6666564941406)"><path d="M0.54 -0.12 C222.98 3.37, 444.35 2.67, 898.06 -0.78 M0.33 0 C258.52 0.49, 516.82 0.17, 898.84 0.21 M899.17 -0.54 C895.8 155.63, 896.05 311.3, 899.03 557.38 M898.38 -0.32 C900.98 144.81, 900.7 289.85, 898.74 557 M898.46 557.12 C626.36 558.29, 353.15 556.96, -0.06 557.31 M898.81 557.17 C677.24 559.34, 456.48 558.75, 0 556.99 M-0.04 557.33 C1.79 365.92, 0.9 175.25, -0.38 0.43 M-0.16 557.49 C1.7 336.65, 1.91 116.3, -0.14 0.27" stroke="#000000" stroke-width="1" fill="none"></path></g><g stroke-linecap="round" transform="translate(60.66668701171875 142.66665649414062) rotate(0 54 54)"><path d="M39.5 2.27 C47.47 -0.7, 58.87 -0.08, 67.93 2.23 C77 4.54, 87.6 9.54, 93.9 16.13 C100.19 22.73, 103.68 32.56, 105.71 41.81 C107.74 51.06, 108.76 62.94, 106.08 71.63 C103.39 80.32, 96.75 88.08, 89.62 93.97 C82.5 99.85, 72.31 105.31, 63.33 106.96 C54.36 108.62, 44.4 107.11, 35.78 103.91 C27.16 100.7, 17.61 94.66, 11.62 87.71 C5.64 80.77, 1.05 71.11, -0.14 62.24 C-1.34 53.37, 0.77 43.19, 4.47 34.49 C8.18 25.78, 15.47 15.61, 22.07 10.02 C28.68 4.44, 39.76 2.48, 44.1 0.97 C48.43 -0.55, 47.87 0.05, 48.08 0.93 M46.98 -1.05 C55.38 -3.25, 66.23 -0.26, 74.9 3.63 C83.56 7.51, 93.31 14.76, 98.97 22.26 C104.62 29.76, 108.19 39.55, 108.83 48.62 C109.46 57.69, 106.78 68.03, 102.77 76.69 C98.75 85.35, 92.33 95.29, 84.73 100.58 C77.13 105.87, 66.65 108.05, 57.16 108.44 C47.66 108.82, 36.19 107.38, 27.76 102.91 C19.34 98.44, 11.2 89.53, 6.61 81.59 C2.02 73.65, 0.3 64.51, 0.21 55.26 C0.13 46.02, 1.72 34.1, 6.1 26.1 C10.48 18.1, 19.5 11.47, 26.51 7.26 C33.52 3.04, 44.57 1.98, 48.15 0.79 C51.72 -0.41, 47.89 -0.55, 47.95 0.1" stroke="#000000" stroke-width="1" fill="none"></path></g><g transform="translate(80.00003051757812 265.6666564941406) rotate(0 44.5 12.5)"><text x="0" y="18" font-family="Virgil, Segoe UI Emoji" font-size="20px" fill="#000000" text-anchor="start" style="white-space: pre;" direction="ltr">pie chart</text></g><g stroke-linecap="round" transform="translate(280.6667175292969 10) rotate(0 151.99996948242188 21.666671752929688)"><path d="M0.72 -0.37 C77.6 -1.11, 157 -0.02, 304.71 -1.21 M-0.18 0.28 C68.44 2.32, 136.02 1.67, 304.13 0 M304.63 1.45 C304.5 14.42, 305.09 26.34, 303.9 42.27 M303.1 0.31 C303.81 13.71, 304.66 28.06, 304.06 43.69 M304.91 43.52 C205.22 43.51, 107.15 41.89, -0.06 43.96 M303.95 42.7 C223.51 44.98, 143.34 45.06, -0.29 43.17 M0.37 41.96 C-0.62 34.66, 0.53 21.6, -0.62 -0.49 M0.64 43.28 C-0.48 31.94, 0.02 19.46, -0.97 0.75" stroke="#000000" stroke-width="1" fill="none"></path></g><g transform="translate(228.66671752929688 151) rotate(0 45.5 10)"><text x="0" y="14" font-family="Virgil, Segoe UI Emoji" font-size="16px" fill="#000000" text-anchor="start" style="white-space: pre;" direction="ltr">descriptions</text></g><g transform="translate(223.33334350585938 183) rotate(0 83.5 20)"><text x="0" y="14" font-family="Virgil, Segoe UI Emoji" font-size="16px" fill="#000000" text-anchor="start" style="white-space: pre;" direction="ltr">the brown fox jumped</text><text x="0" y="34" font-family="Virgil, Segoe UI Emoji" font-size="16px" fill="#000000" text-anchor="start" style="white-space: pre;" direction="ltr"> over the lazy dog</text></g><g stroke-linecap="round"><g transform="translate(116.66668701171875 142) rotate(0 -1.7310094239888656 28.400838642632607)"><path d="M-0.17 -0.47 C-0.55 9.21, -2.06 47.5, -2.69 57.36 M-1.71 -1.76 C-2.16 8.13, -2.75 48.81, -3.3 58.56" stroke="#000000" stroke-width="1" fill="none"></path></g></g><g stroke-linecap="round"><g transform="translate(113.33334350585938 199.33334350585938) rotate(0 27.076639613742003 -9.057597309350967)"><path d="M0.88 0.85 C9.64 -2.17, 43.13 -15.65, 51.94 -18.96 M-0.11 0.25 C9.09 -2.52, 45.34 -14.56, 54.26 -17.58" stroke="#000000" stroke-width="1" fill="none"></path></g></g><g stroke-linecap="round"><g transform="translate(550.0000305175781 304.6666564941406) rotate(0 1.2267162181337312 -88.15336374640464)"><path d="M-0.47 1.09 C-0.56 -28.6, 0.31 -147.82, 0.59 -177.4 M1.49 0.62 C1.68 -28.93, 3.1 -146.09, 2.91 -175.9" stroke="#000000" stroke-width="1" fill="none"></path></g><g transform="translate(550.0000305175781 304.6666564941406) rotate(0 1.2267162181337312 -88.15336374640464)"><path d="M14.88 -148.91 C8.76 -159.09, 6.46 -170.62, 4.59 -176.22 M13.63 -146.73 C10.92 -157.79, 7.02 -166.86, 3.53 -176.85" stroke="#000000" stroke-width="1" fill="none"></path></g><g transform="translate(550.0000305175781 304.6666564941406) rotate(0 1.2267162181337312 -88.15336374640464)"><path d="M-5.64 -148.99 C-3.66 -159.06, 2.14 -170.56, 4.59 -176.22 M-6.89 -146.81 C-2.91 -157.96, -0.11 -167, 3.53 -176.85" stroke="#000000" stroke-width="1" fill="none"></path></g></g><g stroke-linecap="round"><g transform="translate(549.3333435058594 305.3333435058594) rotate(0 148.18409772515298 -0.9608757623703923)"><path d="M-0.52 0.45 C48.81 0.44, 247.65 -0.43, 296.89 -0.63 M1.41 -0.35 C50.58 -0.66, 247.1 -1.98, 296.4 -2.38" stroke="#000000" stroke-width="1" fill="none"></path></g><g transform="translate(549.3333435058594 305.3333435058594) rotate(0 148.18409772515298 -0.9608757623703923)"><path d="M269.05 9.57 C280.1 2.43, 290.55 1.71, 296.4 -3.44 M268.38 7.16 C275.35 5.85, 283 3.17, 296.43 -2.58" stroke="#000000" stroke-width="1" fill="none"></path></g><g transform="translate(549.3333435058594 305.3333435058594) rotate(0 148.18409772515298 -0.9608757623703923)"><path d="M268.9 -10.95 C279.91 -10.37, 290.42 -3.36, 296.4 -3.44 M268.23 -13.36 C275.16 -8.98, 282.85 -5.97, 296.43 -2.58" stroke="#000000" stroke-width="1" fill="none"></path></g></g><g stroke-linecap="round" transform="translate(600.0000305175781 184.66665649414062) rotate(0 9 9)"><path d="M8.21 0.09 C9.96 0.07, 13.2 1.12, 14.69 2.28 C16.18 3.44, 16.87 5.19, 17.14 7.04 C17.42 8.89, 17.21 11.53, 16.33 13.37 C15.45 15.21, 13.66 17.36, 11.87 18.09 C10.08 18.82, 7.22 18.42, 5.59 17.73 C3.95 17.04, 2.87 15.56, 2.04 13.94 C1.22 12.33, 0.64 9.92, 0.66 8.05 C0.68 6.18, 0.64 4.18, 2.15 2.73 C3.66 1.28, 7.88 -0.48, 9.72 -0.65 C11.56 -0.83, 13.06 1.24, 13.19 1.67 M8.39 1.02 C10.15 0.85, 11.96 0.34, 13.65 1.43 C15.34 2.52, 18.14 5.43, 18.53 7.55 C18.91 9.67, 17.21 12.31, 15.95 14.14 C14.7 15.96, 12.59 17.84, 11 18.51 C9.4 19.18, 7.85 18.94, 6.38 18.16 C4.92 17.38, 3.04 15.4, 2.21 13.85 C1.37 12.3, 1.19 10.93, 1.35 8.86 C1.52 6.8, 1.74 2.81, 3.2 1.43 C4.66 0.06, 9.3 0.61, 10.12 0.62 C10.94 0.64, 8.15 1.29, 8.12 1.52" stroke="#000000" stroke-width="1" fill="none"></path></g><g stroke-linecap="round" transform="translate(653.3333435058594 179.33334350585938) rotate(0 8.333343505859375 8.333343505859375)"><path d="M5.3 1.55 C6.69 0.59, 9.21 -0.37, 10.85 -0.05 C12.48 0.28, 14.04 2.04, 15.11 3.5 C16.18 4.95, 17.54 6.8, 17.27 8.71 C17.01 10.61, 14.93 13.71, 13.52 14.94 C12.1 16.17, 10.42 16.21, 8.78 16.08 C7.14 15.96, 5.01 15.13, 3.69 14.19 C2.38 13.24, 1.29 11.91, 0.91 10.4 C0.53 8.89, 0.59 6.64, 1.41 5.12 C2.23 3.6, 4.89 2.04, 5.83 1.27 C6.77 0.5, 7.13 0.35, 7.06 0.48 M11.01 1.32 C12.79 1.27, 13.74 1.83, 14.6 2.8 C15.45 3.77, 15.98 5.11, 16.15 7.15 C16.32 9.19, 16.77 13.58, 15.61 15.04 C14.46 16.5, 11.03 15.86, 9.22 15.9 C7.41 15.94, 6.25 16.14, 4.74 15.29 C3.23 14.43, 0.75 12.33, 0.16 10.75 C-0.43 9.18, 0.67 7.24, 1.18 5.83 C1.7 4.42, 1.73 3.07, 3.24 2.3 C4.75 1.52, 9.06 1.36, 10.24 1.18 C11.42 1, 10.3 1.16, 10.33 1.23" stroke="#000000" stroke-width="1" fill="none"></path></g><g stroke-linecap="round" transform="translate(633.3333435058594 230) rotate(0 8 8)"><path d="M11.11 0.56 C12.71 1.15, 13.64 2.8, 14.31 4.38 C14.99 5.96, 15.28 8.33, 15.14 10.02 C15.01 11.72, 14.55 13.51, 13.48 14.54 C12.41 15.57, 10.36 16.11, 8.73 16.21 C7.11 16.3, 5.16 16.3, 3.73 15.1 C2.3 13.9, 0.47 10.77, 0.15 9 C-0.17 7.23, 1.06 5.75, 1.81 4.48 C2.55 3.22, 2.93 1.9, 4.63 1.41 C6.33 0.91, 10.8 1.57, 11.98 1.49 C13.16 1.41, 11.94 1.11, 11.72 0.95 M10.12 1.32 C11.47 1.8, 13.92 2.36, 14.84 3.81 C15.77 5.27, 15.89 8.52, 15.7 10.05 C15.5 11.58, 14.77 11.98, 13.69 13.01 C12.61 14.03, 10.89 15.96, 9.24 16.19 C7.59 16.42, 5.18 15.45, 3.8 14.39 C2.43 13.34, 1.34 11.65, 0.99 9.86 C0.65 8.06, 0.92 5.06, 1.73 3.61 C2.54 2.16, 4.2 1.75, 5.86 1.15 C7.52 0.56, 10.68 -0.01, 11.68 0.04 C12.68 0.1, 12.19 1.17, 11.85 1.47" stroke="#000000" stroke-width="1" fill="none"></path></g><g stroke-linecap="round" transform="translate(708.0000915527344 184.66665649414062) rotate(0 13.6666259765625 13.6666259765625)"><path d="M16.98 0.8 C19.97 1.16, 23.35 3.21, 25.21 5.62 C27.07 8.03, 28.38 12.45, 28.13 15.27 C27.88 18.08, 25.7 20.43, 23.7 22.49 C21.7 24.56, 19.14 27.05, 16.14 27.64 C13.14 28.23, 8.18 27.58, 5.7 26.04 C3.21 24.51, 2.05 21.45, 1.25 18.46 C0.45 15.47, -0.1 11.09, 0.88 8.1 C1.85 5.11, 4.15 1.65, 7.08 0.53 C10.02 -0.58, 16.59 1.35, 18.5 1.4 C20.41 1.44, 18.63 0.73, 18.54 0.81 M13.12 -1.12 C16.13 -1.6, 20.4 0.75, 22.86 2.68 C25.32 4.62, 27.2 7.59, 27.88 10.48 C28.56 13.37, 28.23 17.48, 26.92 20.03 C25.61 22.57, 22.74 24.49, 20.02 25.75 C17.3 27, 13.4 28.34, 10.61 27.55 C7.83 26.76, 4.9 23.39, 3.32 21 C1.74 18.62, 1.19 15.98, 1.15 13.25 C1.12 10.51, 1.32 6.92, 3.1 4.59 C4.88 2.25, 10.22 0.16, 11.85 -0.75 C13.49 -1.67, 12.81 -1.47, 12.92 -0.9" stroke="#000000" stroke-width="1" fill="none"></path></g><g stroke-linecap="round" transform="translate(593.3333435058594 248.66665649414062) rotate(0 3.333343505859375 3.333343505859375)"><path d="M5.15 0.42 C5.89 0.69, 6.8 2.1, 7.05 2.61 C7.29 3.12, 6.76 2.85, 6.62 3.47 C6.49 4.09, 6.88 5.64, 6.23 6.32 C5.59 7, 3.49 7.51, 2.75 7.56 C2.01 7.61, 2.3 7.29, 1.81 6.63 C1.33 5.97, 0.13 4.62, -0.15 3.63 C-0.43 2.63, -0.4 1.12, 0.11 0.67 C0.63 0.23, 2.2 1.1, 2.93 0.96 C3.67 0.82, 4.1 -0.06, 4.51 -0.16 C4.92 -0.26, 5.43 0.26, 5.41 0.37 M5.29 0.25 C6.03 0.59, 6.56 0.94, 6.93 1.55 C7.31 2.17, 7.63 3.34, 7.55 3.94 C7.47 4.55, 6.99 4.64, 6.46 5.2 C5.93 5.77, 5.03 7.24, 4.37 7.32 C3.71 7.41, 3 6.07, 2.48 5.72 C1.97 5.37, 1.81 5.72, 1.28 5.23 C0.74 4.73, -0.67 3.68, -0.71 2.75 C-0.74 1.81, 0.22 0.26, 1.06 -0.39 C1.9 -1.04, 3.9 -1.46, 4.35 -1.16 C4.81 -0.87, 3.92 1.13, 3.82 1.39" stroke="#000000" stroke-width="1" fill="none"></path></g><g stroke-linecap="round" transform="translate(678.0000305175781 224.66665649414062) rotate(0 3.333343505859375 3.333343505859375)"><path d="M4.91 1.01 C5.47 1.01, 5.59 0.38, 6.01 0.87 C6.43 1.36, 7.57 2.99, 7.44 3.93 C7.3 4.87, 5.72 5.93, 5.2 6.51 C4.69 7.09, 5.02 7.51, 4.37 7.4 C3.72 7.29, 2.08 6.54, 1.31 5.86 C0.55 5.18, -0.15 3.84, -0.2 3.33 C-0.26 2.81, 0.68 3.36, 0.99 2.79 C1.29 2.22, 0.91 0.33, 1.64 -0.1 C2.36 -0.52, 4.72 0.12, 5.31 0.25 C5.9 0.37, 5.22 0.51, 5.18 0.65 M3.07 0.56 C3.61 0.32, 4.61 0.59, 5.23 0.7 C5.85 0.81, 6.44 0.6, 6.77 1.23 C7.09 1.85, 7.21 3.79, 7.16 4.47 C7.11 5.16, 6.88 4.83, 6.45 5.33 C6.02 5.83, 5.58 7.27, 4.57 7.48 C3.55 7.69, 1.22 7.29, 0.37 6.59 C-0.49 5.88, -0.65 4.25, -0.59 3.24 C-0.52 2.24, 0.34 0.85, 0.76 0.56 C1.17 0.27, 1.72 1.55, 1.92 1.51 C2.11 1.47, 1.87 0.71, 1.94 0.31" stroke="#000000" stroke-width="1" fill="none"></path></g><g stroke-linecap="round" transform="translate(747.3333435058594 142) rotate(0 22 22)"><path d="M32.58 2.72 C36.62 4.69, 39.75 9.73, 41.61 14.11 C43.47 18.49, 45.01 24.67, 43.74 28.99 C42.46 33.32, 38.05 37.76, 33.96 40.08 C29.87 42.39, 23.71 43.25, 19.18 42.89 C14.65 42.53, 9.99 41.25, 6.77 37.92 C3.55 34.59, 0.17 27.75, -0.15 22.9 C-0.47 18.06, 2.04 12.58, 4.85 8.84 C7.65 5.11, 11.38 1.03, 16.68 0.5 C21.99 -0.03, 32.99 4.03, 36.67 5.67 C40.35 7.32, 39.06 10.04, 38.77 10.36 M24.9 -0.2 C29.32 0.01, 35.02 4.04, 38.34 7.4 C41.66 10.76, 44.39 15.26, 44.82 19.98 C45.25 24.7, 43.97 31.73, 40.91 35.73 C37.84 39.73, 31.28 43.08, 26.41 43.96 C21.54 44.83, 15.73 43.35, 11.71 40.98 C7.69 38.61, 4.12 33.7, 2.29 29.74 C0.45 25.78, -0.51 21.54, 0.7 17.22 C1.91 12.89, 5.58 6.86, 9.53 3.77 C13.48 0.68, 21.9 -0.7, 24.41 -1.33 C26.93 -1.97, 24.78 -0.44, 24.64 -0.05" stroke="#000000" stroke-width="1" fill="none"></path></g><g stroke-linecap="round" transform="translate(658.6667175292969 270.6666564941406) rotate(0 5.666656494140625 5.666656494140625)"><path d="M7.04 0.56 C8.21 0.68, 9.78 0.79, 10.61 1.74 C11.45 2.69, 12.27 4.92, 12.06 6.25 C11.86 7.58, 10.34 9, 9.36 9.75 C8.38 10.49, 7.22 10.72, 6.17 10.72 C5.12 10.72, 4.04 10.12, 3.05 9.74 C2.06 9.35, 0.7 9.42, 0.23 8.41 C-0.24 7.4, -0.2 5.13, 0.25 3.69 C0.71 2.25, 1.64 0.38, 2.96 -0.23 C4.27 -0.84, 7.21 -0.04, 8.15 0.04 C9.08 0.13, 8.57 0.23, 8.58 0.3 M4.14 -0.29 C5.33 -0.43, 6.28 0.08, 7.33 0.58 C8.38 1.09, 9.94 1.66, 10.44 2.72 C10.93 3.78, 10.4 5.77, 10.33 6.93 C10.25 8.1, 10.98 8.81, 9.96 9.72 C8.94 10.63, 5.69 12.51, 4.19 12.38 C2.69 12.25, 1.61 9.9, 0.97 8.92 C0.32 7.95, 0.42 7.45, 0.31 6.53 C0.19 5.61, -0.25 4.62, 0.26 3.41 C0.76 2.19, 2.59 -0.07, 3.32 -0.76 C4.05 -1.44, 4.65 -0.86, 4.63 -0.68" stroke="#000000" stroke-width="1" fill="none"></path></g><g stroke-linecap="round" transform="translate(608.0000305175781 266) rotate(0 3 3)"><path d="M2.85 0.09 C3.16 0.09, 3.4 0.56, 3.84 0.88 C4.29 1.2, 5.36 1.35, 5.52 2.03 C5.69 2.71, 5.14 4.39, 4.82 4.94 C4.51 5.49, 4.23 5.28, 3.63 5.31 C3.02 5.34, 1.74 5.27, 1.19 5.1 C0.63 4.94, 0.61 4.75, 0.31 4.34 C0.02 3.92, -0.64 3.27, -0.58 2.6 C-0.52 1.93, 0.15 0.79, 0.66 0.31 C1.18 -0.16, 1.96 -0.14, 2.51 -0.26 C3.07 -0.38, 4 -0.61, 3.99 -0.4 M3.01 -0.83 C3.9 -1.21, 5.3 -1.18, 5.62 -0.69 C5.93 -0.19, 5.03 1.6, 4.91 2.15 C4.78 2.71, 5.02 1.93, 4.89 2.64 C4.76 3.35, 4.29 5.68, 4.14 6.42 C3.99 7.16, 4.43 7.28, 4.01 7.08 C3.59 6.87, 2.17 5.84, 1.62 5.19 C1.06 4.54, 0.73 4.07, 0.68 3.18 C0.63 2.28, 1.06 0.42, 1.31 -0.16 C1.56 -0.74, 1.75 -0.5, 2.17 -0.31 C2.59 -0.13, 3.66 1.08, 3.82 0.97" stroke="#000000" stroke-width="1" fill="none"></path></g><g stroke-linecap="round" transform="translate(578.3333435058594 281.6666564941406) rotate(0 3 3)"><path d="M2.91 -0.64 C3.57 -0.48, 4.92 0.39, 5.33 1.04 C5.74 1.7, 5.47 2.7, 5.38 3.31 C5.29 3.91, 5.22 4.28, 4.78 4.68 C4.33 5.09, 3.14 5.69, 2.69 5.74 C2.23 5.78, 2.55 5.17, 2.03 4.95 C1.51 4.74, -0.09 5.05, -0.44 4.44 C-0.79 3.82, -0.47 1.9, -0.06 1.26 C0.34 0.63, 1.42 0.69, 1.99 0.63 C2.57 0.57, 3.16 1.09, 3.39 0.93 C3.62 0.77, 3.28 -0.15, 3.38 -0.33 M3.18 1.42 C3.93 1.02, 4.14 0.33, 4.63 0.32 C5.11 0.32, 5.77 1.11, 6.11 1.38 C6.44 1.66, 6.83 1.4, 6.62 1.96 C6.42 2.52, 5.2 3.91, 4.88 4.72 C4.55 5.54, 5.16 6.94, 4.67 6.84 C4.18 6.74, 2.95 4.6, 1.94 4.13 C0.94 3.65, -1.29 4.33, -1.36 4 C-1.44 3.66, 0.76 2.65, 1.5 2.11 C2.24 1.57, 2.84 1.03, 3.09 0.74 C3.34 0.45, 3.2 0.31, 3.02 0.37" stroke="#000000" stroke-width="1" fill="none"></path></g><g stroke-linecap="round" transform="translate(605.3333435058594 231.66665649414062) rotate(0 3 3)"><path d="M2.16 -0.21 C2.8 -0.26, 3.21 0.05, 3.76 0.31 C4.31 0.56, 5.2 0.79, 5.46 1.34 C5.73 1.89, 5.37 3, 5.36 3.62 C5.36 4.24, 5.98 4.54, 5.44 5.05 C4.9 5.56, 2.94 6.77, 2.11 6.7 C1.27 6.63, 0.75 5.17, 0.43 4.64 C0.12 4.11, 0.27 3.98, 0.2 3.54 C0.13 3.09, -0.27 2.65, 0.01 1.96 C0.3 1.28, 1.39 -0.15, 1.9 -0.58 C2.4 -1, 3.07 -0.67, 3.04 -0.56 M4.73 0.35 C5.19 0.32, 5.85 1.18, 6.17 1.47 C6.48 1.75, 6.84 1.51, 6.61 2.06 C6.39 2.61, 5.15 4, 4.81 4.79 C4.47 5.59, 5.06 6.97, 4.57 6.85 C4.08 6.73, 2.85 4.56, 1.86 4.07 C0.87 3.58, -1.34 4.24, -1.39 3.9 C-1.44 3.56, 0.78 2.55, 1.55 2.02 C2.31 1.48, 2.59 1.01, 3.18 0.7 C3.78 0.38, 5 0.13, 5.13 0.13 C5.27 0.12, 4.32 0.62, 3.99 0.68" stroke="#000000" stroke-width="1" fill="none"></path></g><g stroke-linecap="round" transform="translate(583.3333435058594 246.66665649414062) rotate(0 3 3)"><path d="M1.28 0.19 C1.81 -0.1, 3.01 -0.5, 3.64 -0.34 C4.26 -0.17, 4.52 0.61, 5.04 1.16 C5.56 1.71, 6.87 2.16, 6.77 2.96 C6.68 3.76, 5.15 5.52, 4.47 5.96 C3.8 6.4, 3.25 5.63, 2.72 5.59 C2.2 5.55, 1.89 5.94, 1.35 5.74 C0.8 5.53, -0.24 5.17, -0.53 4.38 C-0.81 3.59, -0.8 1.79, -0.36 0.98 C0.09 0.18, 1.88 -0.28, 2.14 -0.45 C2.41 -0.63, 1.14 -0.39, 1.23 -0.07 M4.77 0.35 C5.31 0.28, 6.11 -0.18, 6.26 0.3 C6.41 0.78, 5.67 2.24, 5.67 3.22 C5.66 4.21, 6.59 5.96, 6.24 6.2 C5.89 6.43, 4.67 4.77, 3.56 4.64 C2.44 4.51, -0.08 5.57, -0.46 5.43 C-0.84 5.29, 0.89 4.38, 1.27 3.79 C1.66 3.2, 1.49 2.48, 1.84 1.88 C2.18 1.28, 2.94 0.36, 3.34 0.17 C3.75 -0.03, 4.24 0.68, 4.27 0.71 C4.29 0.74, 3.73 0.33, 3.5 0.35" stroke="#000000" stroke-width="1" fill="none"></path></g><g stroke-linecap="round" transform="translate(701.3333435058594 247.66665649414062) rotate(0 8 8)"><path d="M5.14 -0.15 C6.62 -0.54, 9.25 0.77, 10.83 1.43 C12.42 2.08, 13.7 2.48, 14.65 3.81 C15.59 5.13, 16.9 7.6, 16.53 9.39 C16.16 11.18, 13.86 13.56, 12.44 14.56 C11.02 15.57, 9.51 15.64, 8 15.4 C6.48 15.17, 4.76 14.2, 3.34 13.16 C1.91 12.12, -0.09 10.89, -0.54 9.16 C-0.99 7.42, -0.47 4.18, 0.64 2.77 C1.76 1.37, 4.9 1.02, 6.16 0.72 C7.43 0.41, 8.08 0.88, 8.25 0.94 M8.53 -0.07 C10.06 0.32, 12.63 3.02, 14.02 4.54 C15.4 6.06, 17.1 7.8, 16.84 9.03 C16.59 10.27, 13.78 10.61, 12.5 11.97 C11.22 13.33, 10.58 16.49, 9.16 17.18 C7.74 17.87, 5.38 17.04, 3.99 16.12 C2.59 15.19, 1.35 13.49, 0.79 11.65 C0.24 9.81, -0.04 6.95, 0.64 5.06 C1.32 3.17, 3.33 1.3, 4.86 0.3 C6.4 -0.69, 9 -0.76, 9.87 -0.9 C10.75 -1.05, 9.96 -0.94, 10.1 -0.55" stroke="#000000" stroke-width="1" fill="none"></path></g><g stroke-linecap="round" transform="translate(698.3333435058594 162.66665649414062) rotate(0 8 8)"><path d="M6.56 0.89 C8.16 0.55, 10.09 -0.05, 11.71 0.65 C13.34 1.35, 15.76 3.34, 16.31 5.09 C16.86 6.83, 15.72 9.57, 15.04 11.13 C14.35 12.69, 13.51 13.77, 12.2 14.44 C10.89 15.11, 9.02 15.35, 7.17 15.13 C5.33 14.91, 2.44 14.5, 1.14 13.12 C-0.16 11.75, -0.72 8.53, -0.62 6.89 C-0.52 5.25, 0.2 4.28, 1.75 3.26 C3.29 2.24, 7.43 1.24, 8.66 0.75 C9.88 0.26, 9.19 0.31, 9.1 0.33 M9.3 1.54 C11.27 1.93, 14.27 2.83, 15.16 3.71 C16.05 4.58, 14.81 4.99, 14.64 6.81 C14.46 8.62, 14.98 12.84, 14.12 14.6 C13.25 16.35, 11.1 17.08, 9.44 17.32 C7.79 17.57, 5.71 17.2, 4.2 16.08 C2.69 14.97, 0.92 12.59, 0.4 10.64 C-0.12 8.7, 0.43 6.23, 1.09 4.42 C1.75 2.62, 2.85 0.69, 4.33 -0.17 C5.82 -1.03, 8.95 -0.89, 10.02 -0.73 C11.09 -0.57, 10.64 0.58, 10.74 0.81" stroke="#000000" stroke-width="1" fill="none"></path></g><g stroke-linecap="round" transform="translate(750.3333435058594 200.66665649414062) rotate(0 8 8)"><path d="M6.88 -0.23 C8.44 -0.56, 9.65 0.78, 10.99 1.54 C12.34 2.3, 14.13 2.84, 14.94 4.35 C15.76 5.86, 16.4 8.75, 15.88 10.6 C15.37 12.44, 13.45 14.61, 11.87 15.41 C10.3 16.2, 8.02 15.77, 6.44 15.35 C4.85 14.94, 3.6 14.1, 2.38 12.92 C1.16 11.74, -0.84 9.72, -0.88 8.28 C-0.93 6.84, 0.67 5.55, 2.1 4.28 C3.52 3.01, 6.7 1.28, 7.67 0.67 C8.64 0.06, 8.03 0.51, 7.94 0.61 M6.11 1.55 C7.7 0.63, 9.66 -1.41, 10.83 -1.05 C12 -0.69, 12.09 2, 13.15 3.7 C14.21 5.4, 16.9 7.42, 17.2 9.17 C17.5 10.92, 16.18 13.06, 14.96 14.19 C13.74 15.33, 11.78 15.86, 9.86 15.99 C7.95 16.12, 5.17 15.97, 3.47 14.98 C1.77 13.98, 0.29 11.71, -0.34 10.02 C-0.97 8.33, -0.99 6.22, -0.3 4.85 C0.4 3.48, 2.91 2.28, 3.84 1.8 C4.77 1.31, 5.14 2.2, 5.29 1.93" stroke="#000000" stroke-width="1" fill="none"></path></g><g transform="translate(638.0000305175781 318.3333435058594) rotate(0 62 12.5)"><text x="0" y="18" font-family="Virgil, Segoe UI Emoji" font-size="20px" fill="#000000" text-anchor="start" style="white-space: pre;" direction="ltr">scatter plot</text></g><g stroke-linecap="round"><g transform="translate(100.00003051757812 588.0000305175781) rotate(0 -0.2297889236267565 -109.28500163775402)"><path d="M-0.86 -0.72 C-0.82 -37.56, -0.35 -183.6, -0.5 -220.08 M0.89 1.51 C0.85 -35.26, -1.3 -182.27, -1.35 -218.94" stroke="#000000" stroke-width="1" fill="none"></path></g><g transform="translate(100.00003051757812 588.0000305175781) rotate(0 -0.2297889236267565 -109.28500163775402)"><path d="M7.95 -190.56 C5.15 -199.5, 3.35 -203.34, 0.64 -217.45 M9.25 -190.42 C4.49 -201.08, 1.31 -210.09, -0.78 -218.52" stroke="#000000" stroke-width="1" fill="none"></path></g><g transform="translate(100.00003051757812 588.0000305175781) rotate(0 -0.2297889236267565 -109.28500163775402)"><path d="M-12.57 -190.38 C-10.42 -199.21, -7.28 -203.1, 0.64 -217.45 M-11.27 -190.24 C-8.65 -201.06, -4.45 -210.14, -0.78 -218.52" stroke="#000000" stroke-width="1" fill="none"></path></g></g><g stroke-linecap="round"><g transform="translate(98.66668701171875 588.0000305175781) rotate(0 137.14754003399182 0.4620806247244218)"><path d="M-1.02 1.36 C65.58 0.12, 133.6 -1.14, 275.31 0.67 M0.06 0.21 C89.8 -0.64, 180.78 -0.71, 273.86 0.36" stroke="#000000" stroke-width="1" fill="none"></path></g><g transform="translate(98.66668701171875 588.0000305175781) rotate(0 137.14754003399182 0.4620806247244218)"><path d="M244.27 12.14 C250.88 7.86, 259.33 3.79, 275.55 1.23 M245.66 10.66 C254.61 7.67, 265.06 4.28, 273.68 0.82" stroke="#000000" stroke-width="1" fill="none"></path></g><g transform="translate(98.66668701171875 588.0000305175781) rotate(0 137.14754003399182 0.4620806247244218)"><path d="M244.44 -8.38 C251.01 -7.66, 259.41 -6.72, 275.55 1.23 M245.83 -9.86 C254.57 -6.1, 264.97 -2.74, 273.68 0.82" stroke="#000000" stroke-width="1" fill="none"></path></g></g><g stroke-linecap="round"><g transform="translate(128.00003051757812 542.6666564941406) rotate(0 109.43246564269066 -44.8811299353838)"><path d="M-1.71 -1.99 C10.49 -12.89, 21.15 -20.87, 48.03 -48.81 M-0.99 -0.54 C11.47 -10.81, 23.48 -23.65, 49.91 -50.12 M48.52 -50.88 C58.25 -42.48, 67.85 -37.05, 83.61 -30.23 M49.67 -49.9 C57.05 -44.41, 67.72 -39.57, 82.32 -27.94 M83.16 -27.7 C92.04 -44.4, 103.3 -62.2, 111.93 -74.98 M82.96 -29.09 C93.5 -47.01, 105.84 -63.68, 112.91 -73.99 M113.44 -75.13 C124.28 -78.01, 133.33 -79.94, 149.08 -87.74 M111.92 -72.8 C127.2 -79.77, 140.92 -84.67, 149.55 -89.22 M149.73 -88.11 C155.91 -68.43, 160.42 -47.52, 161.93 -38.46 M149.28 -88.87 C153.89 -75.07, 155.87 -61.43, 160.98 -38.19 M161.12 -38.85 C168.42 -40.56, 180.09 -46.31, 188.41 -49.37 M160.66 -36.71 C170.93 -41.5, 178.55 -44.06, 190.64 -49.58 M191.82 -47.81 C199.03 -38.41, 210.94 -26.81, 220.58 -19.27 M190.37 -47.89 C200.24 -39.22, 208.26 -30.39, 219.16 -20.02" stroke="#000000" stroke-width="1" fill="none"></path></g></g><g stroke-linecap="round"><g transform="translate(158.00003051757812 547.3333435058594) rotate(0 93.56298313289881 -59.910145193338394)"><path d="M-1.46 1.65 C12.24 -14.87, 20.64 -30.16, 38.71 -59.88 M0.25 -0.35 C11.58 -15.33, 22.42 -31.69, 38.39 -61 M39.63 -58.69 C49.67 -64.07, 59.61 -72.03, 69.71 -75.75 M39.52 -60.01 C46.83 -64.29, 52.66 -67.08, 67.36 -76.67 M68.61 -75.14 C72.49 -83.75, 76.57 -92.17, 86.35 -109.36 M67.43 -77.16 C73.74 -89.4, 80.86 -102.59, 85.99 -110.54 M83.95 -111.66 C97.55 -115.23, 112.09 -117.67, 121.8 -120.17 M84.7 -110.42 C93.04 -113.78, 101.83 -116.84, 123.4 -120.24 M124.54 -121.47 C126.52 -109.58, 132.42 -94.89, 143.25 -71.87 M123.6 -120.52 C128.18 -105.65, 135.46 -91.98, 144.47 -70.98 M143.35 -70.01 C161.44 -77.16, 180.16 -88.1, 188.32 -93.4 M144.1 -69.81 C160.05 -79, 174.13 -86.26, 188.58 -93.15" stroke="#000000" stroke-width="1" fill="none"></path></g></g><g transform="translate(169.33334350585938 605.6666564941406) rotate(0 38.5 12.5)"><text x="0" y="18" font-family="Virgil, Segoe UI Emoji" font-size="20px" fill="#000000" text-anchor="start" style="white-space: pre;" direction="ltr">line plot</text></g><g stroke-linecap="round"><g transform="translate(550.0000305175781 512.0000305175781) rotate(0 0.6095306644152174 -78.44615706801414)"><path d="M0.74 1.71 C-1.52 -49.83, -0.74 -103.23, 1.81 -158.6 M-0.07 -0.23 C0.98 -33.35, 1.28 -66.22, 1.4 -158.04" stroke="#000000" stroke-width="1" fill="none"></path></g><g transform="translate(550.0000305175781 512.0000305175781) rotate(0 0.6095306644152174 -78.44615706801414)"><path d="M12.33 -128.11 C7.11 -137.92, 4.4 -149.49, 2.55 -158.64 M11.52 -130.05 C9.33 -135.93, 7.36 -141.65, 2.14 -158.07" stroke="#000000" stroke-width="1" fill="none"></path></g><g transform="translate(550.0000305175781 512.0000305175781) rotate(0 0.6095306644152174 -78.44615706801414)"><path d="M-8.19 -128.16 C-6.8 -137.78, -2.9 -149.34, 2.55 -158.64 M-9 -130.1 C-6.89 -136.13, -4.57 -141.83, 2.14 -158.07" stroke="#000000" stroke-width="1" fill="none"></path></g></g><g stroke-linecap="round"><g transform="translate(550.0000305175781 514.6666564941406) rotate(0 137.97789997507664 -0.12836548959171523)"><path d="M-1 -1.06 C63.41 0.92, 124.67 2.01, 275.54 0.07 M0.43 0.14 C88.2 -0.41, 176.29 -0.64, 276.96 -1.34" stroke="#000000" stroke-width="1" fill="none"></path></g><g transform="translate(550.0000305175781 514.6666564941406) rotate(0 137.97789997507664 -0.12836548959171523)"><path d="M247.53 7.72 C256.71 6.56, 261.8 6.01, 275.5 0.48 M249.38 9.28 C257.86 5.22, 266.71 2.15, 277.33 -1.34" stroke="#000000" stroke-width="1" fill="none"></path></g><g transform="translate(550.0000305175781 514.6666564941406) rotate(0 137.97789997507664 -0.12836548959171523)"><path d="M247.41 -12.81 C256.6 -9.35, 261.71 -5.28, 275.5 0.48 M249.25 -11.24 C257.72 -8.76, 266.61 -5.29, 277.33 -1.34" stroke="#000000" stroke-width="1" fill="none"></path></g></g><g stroke-linecap="round" transform="translate(604.0000305175781 390.6666564941406) rotate(0 6 62.66668701171875)"><path d="M1.02 -0.43 C3.39 0.94, 6.42 -0.81, 10.92 -0.79 M0.36 -0.25 C3.63 -0.23, 5.89 0.18, 11.77 -0.13 M11.73 0.41 C14.62 43.28, 12.88 90.34, 12.74 126.3 M11.3 -0.5 C11.68 45.17, 12.5 91.23, 11.07 125.75 M11.47 124.82 C7 125.21, 2.94 124.56, 0.99 124.71 M12.41 125.28 C9.94 125.45, 7 125.46, 0.41 124.82 M-1.97 125.38 C-0.64 77.27, 0.9 30.81, 0.95 0.87 M0.59 124.57 C0.16 91.95, 0.91 57.02, -0.38 0.32" stroke="#000000" stroke-width="1" fill="none"></path></g><g stroke-linecap="round" transform="translate(618.6667175292969 418.6666564941406) rotate(0 8 48.333343505859375)"><path d="M-1.58 0.03 C5.1 -0.94, 12.34 -0.46, 16.76 0.7 M0.47 -0.61 C3.83 0.33, 8.75 -0.56, 15.7 0.25 M14.75 1.06 C16.74 35.01, 15.14 68.83, 17.77 97.97 M15.03 0.98 C15.71 20.74, 15.69 42.73, 15.72 97.51 M14.92 95.53 C10.9 96.15, 7.14 98.22, 1.04 95.31 M16.6 95.98 C10.96 95.84, 7.19 96.39, 0.03 96.39 M1.19 97.02 C0.79 73.54, 1.72 50.34, 1.86 -1.72 M-0.33 96.47 C-0.79 59.3, -1.3 20.7, -0.65 -0.74" stroke="#000000" stroke-width="1" fill="none"></path></g><g stroke-linecap="round" transform="translate(687.3333435058594 394.9999694824219) rotate(0 6 60.66668701171875)"><path d="M1.1 0.65 C3.89 -0.4, 7.51 -0.79, 12.72 -0.14 M0.37 -0.48 C4.49 0.06, 8.95 0.14, 11.65 -0.31 M10.72 0.95 C12.12 30.44, 12.09 59.6, 12.37 122.62 M11.51 -0.43 C10.61 27.87, 10.44 56.42, 12.56 121.28 M12.07 121.05 C9.65 121.19, 5.99 120.79, -0.27 122 M12.53 121.63 C8.03 121.31, 4.12 121.39, 0.25 121.23 M-1.33 120.22 C-0.1 95.02, 1.49 69.97, 1.26 0.96 M-0.66 121 C-1.22 74.65, -0.39 26.37, 0.89 0.72" stroke="#000000" stroke-width="1" fill="none"></path></g><g stroke-linecap="round" transform="translate(700.3333435058594 390.3333435058594) rotate(0 6 62.66668701171875)"><path d="M0.31 -0.29 C5.05 -0.74, 10.12 -0.2, 12.71 0.45 M0.18 0.06 C3.88 0.23, 6.77 -0.21, 11.68 0.32 M11.47 0.53 C10.64 26.99, 11.57 55.72, 10.58 123.9 M11.48 0.05 C10.69 25.91, 11.94 50.17, 11.75 125.29 M12.94 125.21 C9.17 124.79, 4.91 125.97, 0.11 126.06 M11.74 125.29 C7.74 125.43, 4.67 125.29, -0.52 125.28 M-0.21 124.93 C2.22 83.9, 2.09 42.54, 1.79 1.59 M-0.26 125.89 C1.4 93.8, 1.71 63.96, -0.35 -0.34" stroke="#000000" stroke-width="1" fill="none"></path></g><g stroke-linecap="round" transform="translate(759.3333435058594 425.6666564941406) rotate(0 7.33331298828125 45.333343505859375)"><path d="M-0.35 0.42 C4.92 0.84, 11.32 0.84, 15.21 -0.05 M0.07 0.4 C5.48 -0.47, 10.24 -0.44, 15.06 -0.61 M15.19 -0.56 C14.87 21.78, 16.38 41.41, 13.23 88.67 M14.72 -0.69 C15.08 23.31, 14.23 45.24, 14.62 90.51 M14.52 91.37 C9.55 90.45, 6.52 90.92, 0.88 90.9 M14.62 90.1 C9.01 90.91, 3.12 89.97, -0.06 90.92 M-0.41 92.06 C0.95 70.75, 1.47 50.1, 1.59 -1.05 M0.55 91.25 C-0.19 70.31, 1.02 47.83, -0.34 -0.7" stroke="#000000" stroke-width="1" fill="none"></path></g><g stroke-linecap="round" transform="translate(773.3333435058594 389.9999694824219) rotate(0 6 62.66668701171875)"><path d="M0.34 -0.68 C4.97 -0.11, 9.21 0.48, 11.96 0.74 M0.32 0.14 C2.3 -0.32, 4.97 0.31, 11.5 -0.38 M11.44 -0.22 C12.03 44.82, 10.25 85.63, 10.01 124.35 M11.31 0.8 C11.91 32.2, 11.1 64.45, 11.84 125.39 M12.58 124.81 C8.41 125.99, 5.47 126.04, 0.19 126.4 M11.54 125.37 C8.05 125.22, 3.08 125.27, 0.2 124.93 M1.39 125.78 C1.39 95.69, 1.92 65.72, -1.05 -1.31 M0.58 124.84 C1.21 92.6, -0.03 58.09, -0.7 -0.41" stroke="#000000" stroke-width="1" fill="none"></path></g><g transform="translate(610.0000305175781 527.6666564941406) rotate(0 47.5 12.5)"><text x="0" y="18" font-family="Virgil, Segoe UI Emoji" font-size="20px" fill="#000000" text-anchor="start" style="white-space: pre;" direction="ltr">bar chart</text></g><g transform="translate(615.3334045410156 565.6666564941406) rotate(0 45.5 10)"><text x="0" y="14" font-family="Virgil, Segoe UI Emoji" font-size="16px" fill="#000000" text-anchor="start" style="white-space: pre;" direction="ltr">descriptions</text></g><g transform="translate(587.5000915527344 601.9999694824219) rotate(0 83.5 20)"><text x="0" y="14" font-family="Virgil, Segoe UI Emoji" font-size="16px" fill="#000000" text-anchor="start" style="white-space: pre;" direction="ltr">the brown fox jumped</text><text x="0" y="34" font-family="Virgil, Segoe UI Emoji" font-size="16px" fill="#000000" text-anchor="start" style="white-space: pre;" direction="ltr"> over the lazy dog</text></g></svg>